<svg width="54" height="54" viewBox="0 0 54 54" fill="none" xmlns="http://www.w3.org/2000/svg">
<rect width="54" height="54" rx="27" fill="#EF534F"/>
<path fill-rule="evenodd" clip-rule="evenodd" d="M14 25.2528C14 19.5904 19.8199 15 27 15C34.1801 15 40 19.5904 40 25.2528C40 30.916 34.1801 35.5063 27 35.5063C26.2274 35.5068 25.4558 35.4528 24.6909 35.3446C23.9409 35.8737 19.6071 38.919 19.1984 38.9759C19.1984 38.9759 19.0302 39.041 18.888 38.9572C18.745 38.8735 18.771 38.6533 18.771 38.6533C18.8141 38.3599 19.8947 34.6269 20.0938 33.9402C16.4334 32.1261 14 28.9142 14 25.2528ZM22.7784 22.9242C22.7784 22.5194 22.4534 22.1895 22.0532 22.1895H18.2696C17.8701 22.1895 17.5452 22.5194 17.5452 22.9242C17.5456 23.119 17.6221 23.3058 17.7579 23.4435C17.8936 23.5812 18.0776 23.6587 18.2696 23.6589H19.423V28.116C19.423 28.511 19.7544 28.832 20.1618 28.832C20.5692 28.832 20.9006 28.511 20.9006 28.116V23.6589H22.0532C22.2452 23.6589 22.4295 23.5815 22.5654 23.4438C22.7014 23.3061 22.778 23.1192 22.7784 22.9242ZM25.5182 22.9307C25.3934 22.5706 25.0148 22.2008 24.5329 22.1895C24.0511 22.2008 23.6733 22.5706 23.5484 22.9299L21.781 27.6535C21.5569 28.3614 21.753 28.6239 21.9563 28.719C22.1037 28.7876 22.2641 28.8228 22.4262 28.8223C22.7344 28.8223 22.9697 28.6955 23.0409 28.4915L23.4067 27.5186H25.6599L26.0257 28.4915C26.097 28.6955 26.3323 28.8223 26.6404 28.8223C26.8025 28.8223 26.9627 28.7871 27.1103 28.719C27.3136 28.6239 27.5097 28.3614 27.2848 27.6519L25.5182 22.9307ZM33.3176 22.9396C33.3176 22.5259 32.9862 22.1895 32.5788 22.1895C32.1714 22.1895 31.84 22.5259 31.84 22.9396V28.0721C31.84 28.271 31.9179 28.4619 32.0564 28.6025C32.195 28.7432 32.3829 28.8223 32.5788 28.8223C32.7748 28.8223 32.9627 28.7432 33.1012 28.6025C33.2398 28.4619 33.3176 28.271 33.3176 28.0721V26.4352L33.5738 26.1743L35.3067 28.5061C35.3755 28.5989 35.4645 28.6743 35.5668 28.7263C35.6898 28.7892 35.8277 28.8156 35.9647 28.8025C36.1018 28.7894 36.2324 28.7374 36.3417 28.6524C36.4191 28.5933 36.4843 28.5192 36.5335 28.4344C36.5827 28.3496 36.6149 28.2557 36.6282 28.1582C36.6549 27.9612 36.604 27.7615 36.4865 27.6023L34.6672 25.156L36.3513 23.446C36.4092 23.3862 36.4538 23.3145 36.4819 23.2357C36.5101 23.1568 36.5212 23.0728 36.5145 22.9892C36.5033 22.8145 36.4265 22.6454 36.2968 22.5137C36.1584 22.3731 35.9735 22.2927 35.7886 22.2927C35.7128 22.2916 35.6376 22.3057 35.5672 22.3343C35.4969 22.3629 35.4328 22.4054 35.3787 22.4593L33.3176 24.5521V22.9396ZM29.2739 22.9396C29.2739 22.5259 28.9361 22.1895 28.5199 22.1895C28.1036 22.1895 27.7659 22.5259 27.7659 22.9396V28.0355C27.7659 28.4143 28.0828 28.7231 28.4734 28.7231H30.8443C31.2349 28.7231 31.5527 28.4143 31.5527 28.0355C31.5527 27.656 31.2349 27.3471 30.8443 27.3471H29.2739V22.9396ZM23.7949 26.1898L24.5329 24.0612L25.2709 26.1898H23.7949Z" fill="#FAF5F5"/>
</svg>
