<?xml version="1.0" encoding="UTF-8"?>
<svg xmlns="http://www.w3.org/2000/svg" xmlns:xlink="http://www.w3.org/1999/xlink" width="720px" height="422px" viewBox="0 0 720 422" version="1.1">
<g id="surface1">
<path style=" stroke:none;fill-rule:nonzero;fill:rgb(11.764706%,84.313725%,37.647059%);fill-opacity:1;" d="M 132.738281 83.191406 C 72.421875 83.191406 23.710938 140.457031 23.710938 211 C 23.710938 281.699219 72.550781 338.808594 132.742188 338.808594 C 193.054688 338.808594 241.777344 281.558594 241.777344 211 C 241.777344 140.441406 192.9375 83.191406 132.742188 83.191406 Z M 182.761719 267.644531 C 180.804688 271.464844 176.640625 272.535156 173.382812 270.25 C 147.71875 251.925781 115.542969 247.8125 77.503906 257.871094 C 73.855469 258.785156 70.207031 256.183594 69.425781 251.914062 C 68.644531 247.644531 70.867188 243.359375 74.507812 242.445312 C 116.0625 231.296875 151.753906 236.03125 180.40625 256.652344 C 183.664062 258.945312 184.703125 263.828125 182.746094 267.644531 Z M 196.042969 232.832031 C 193.570312 237.566406 188.363281 238.9375 184.320312 236.195312 C 155.011719 215.121094 110.339844 209.015625 75.683594 221.226562 C 71.125 222.753906 66.445312 219.855469 65.125 214.65625 C 63.820312 209.3125 66.292969 203.824219 70.855469 202.277344 C 110.453125 188.234375 159.691406 194.949219 193.433594 219.160156 C 197.335938 221.902344 198.515625 228.019531 196.039062 232.746094 Z M 197.214844 196.488281 C 162.042969 172.054688 104.074219 169.761719 70.46875 181.679688 C 65.070312 183.660156 59.398438 179.988281 57.703125 173.730469 C 56.003906 167.46875 59.140625 160.753906 64.480469 158.761719 C 103.039062 145.019531 167.128906 147.769531 207.511719 175.867188 C 212.328125 179.230469 213.894531 186.558594 211.027344 192.207031 C 208.421875 198.007812 202.039062 199.84375 197.226562 196.484375 Z M 197.214844 196.488281 "/>
<path style=" stroke:none;fill-rule:nonzero;fill:rgb(11.764706%,84.313725%,37.647059%);fill-opacity:1;" d="M 298.496094 207.175781 C 279.898438 202.066406 276.695312 198.304688 276.695312 190.640625 C 276.695312 183.421875 282.464844 178.613281 291.058594 178.613281 C 299.394531 178.613281 307.730469 182.371094 316.453125 189.886719 C 316.707031 190.1875 317.09375 190.1875 317.347656 190.1875 C 317.734375 190.1875 317.992188 189.886719 318.117188 189.585938 L 327.222656 174.554688 C 327.601562 173.925781 327.488281 173.0625 326.96875 172.597656 C 316.578125 162.828125 304.910156 158.167969 291.3125 158.167969 C 271.308594 158.167969 257.328125 172.296875 257.328125 192.441406 C 257.328125 214.09375 269.382812 221.757812 290.289062 227.621094 C 307.988281 232.433594 311.066406 236.492188 311.066406 243.558594 C 311.066406 251.527344 305.039062 256.488281 295.289062 256.488281 C 284.515625 256.488281 275.667969 252.277344 265.792969 242.203125 C 265.535156 241.90625 265.152344 241.90625 264.894531 241.90625 C 264.511719 241.90625 264.253906 242.054688 264.125 242.355469 L 253.992188 256.488281 C 253.609375 257.089844 253.609375 257.992188 254.121094 258.441406 C 265.664062 270.46875 279.773438 276.78125 295.035156 276.78125 C 316.578125 276.78125 330.558594 262.953125 330.558594 241.605469 C 330.300781 223.5625 321.070312 213.640625 298.496094 207.175781 Z M 379.164062 185.679688 C 369.804688 185.679688 362.109375 190.039062 355.824219 198.90625 L 355.824219 188.984375 C 355.824219 188.234375 355.3125 187.632812 354.667969 187.632812 L 338.125 187.632812 C 337.484375 187.632812 336.972656 188.234375 336.972656 188.984375 L 336.972656 299.632812 C 336.972656 300.386719 337.484375 300.988281 338.125 300.988281 L 354.667969 300.988281 C 355.3125 300.988281 355.824219 300.386719 355.824219 299.632812 L 355.824219 264.753906 C 362.109375 273.023438 369.804688 277.082031 379.164062 277.082031 C 396.480469 277.082031 414.179688 261.449219 414.179688 231.378906 C 414.050781 201.464844 396.480469 185.679688 379.164062 185.679688 Z M 394.8125 231.378906 C 394.8125 246.714844 386.730469 257.238281 375.316406 257.238281 C 363.902344 257.238281 355.4375 246.113281 355.4375 231.378906 C 355.4375 216.648438 364.03125 205.523438 375.316406 205.523438 C 386.605469 205.523438 394.8125 216.347656 394.8125 231.378906 Z M 459.195312 185.679688 C 436.878906 185.679688 419.308594 205.824219 419.308594 231.679688 C 419.308594 257.238281 436.75 277.234375 458.9375 277.234375 C 481.382812 277.234375 498.949219 257.089844 498.949219 231.378906 C 498.949219 205.824219 481.507812 185.679688 459.195312 185.679688 Z M 459.195312 257.390625 C 447.265625 257.390625 438.289062 246.113281 438.289062 231.378906 C 438.289062 216.496094 447.011719 205.671875 458.9375 205.671875 C 470.863281 205.671875 479.96875 216.949219 479.96875 231.832031 C 479.84375 246.566406 471.121094 257.390625 459.195312 257.390625 Z M 546.660156 187.480469 L 528.449219 187.480469 L 528.449219 165.53125 C 528.449219 164.78125 527.9375 164.179688 527.292969 164.179688 L 510.75 164.179688 C 510.109375 164.179688 509.597656 164.78125 509.597656 165.53125 L 509.597656 187.480469 L 501.644531 187.480469 C 501.003906 187.480469 500.488281 188.082031 500.488281 188.835938 L 500.488281 205.523438 C 500.488281 206.273438 501.003906 206.875 501.644531 206.875 L 509.597656 206.875 L 509.597656 250.171875 C 509.597656 267.613281 517.035156 276.480469 531.65625 276.480469 C 537.554688 276.480469 542.554688 274.980469 547.171875 271.972656 C 547.558594 271.671875 547.8125 271.21875 547.8125 270.769531 L 547.8125 254.832031 C 547.8125 254.382812 547.558594 253.929688 547.300781 253.628906 C 546.917969 253.328125 546.53125 253.328125 546.148438 253.628906 C 542.941406 255.585938 539.863281 256.335938 536.398438 256.335938 C 531.011719 256.335938 528.707031 253.480469 528.707031 247.167969 L 528.707031 207.027344 L 546.917969 207.027344 C 547.558594 207.027344 548.070312 206.425781 548.070312 205.671875 L 548.070312 188.984375 C 547.941406 188.082031 547.429688 187.480469 546.660156 187.480469 Z M 610.402344 187.632812 L 610.402344 184.925781 C 610.402344 176.957031 612.964844 173.5 618.738281 173.5 C 622.199219 173.5 625.019531 174.253906 628.097656 175.457031 C 628.484375 175.605469 628.867188 175.457031 629.253906 175.304688 C 629.507812 175.003906 629.765625 174.554688 629.765625 174.101562 L 629.765625 157.714844 C 629.765625 157.113281 629.382812 156.511719 628.867188 156.363281 C 625.535156 155.160156 621.429688 154.105469 615.015625 154.105469 C 599.628906 154.105469 591.546875 164.179688 591.546875 183.421875 L 591.546875 187.480469 L 583.597656 187.480469 C 582.953125 187.480469 582.3125 188.082031 582.3125 188.835938 L 582.3125 205.671875 C 582.3125 206.425781 582.828125 207.027344 583.597656 207.027344 L 591.546875 207.027344 L 591.546875 273.777344 C 591.546875 274.527344 592.0625 275.128906 592.703125 275.128906 L 609.246094 275.128906 C 609.886719 275.128906 610.402344 274.527344 610.402344 273.777344 L 610.402344 207.027344 L 625.917969 207.027344 L 649.644531 273.777344 C 646.953125 280.839844 644.257812 282.195312 640.667969 282.195312 C 637.71875 282.195312 634.640625 281.140625 631.5625 279.1875 C 631.304688 279.039062 630.921875 279.039062 630.535156 279.039062 C 630.277344 279.1875 629.894531 279.488281 629.765625 279.789062 L 624.125 294.222656 C 623.867188 294.972656 624.125 295.726562 624.636719 296.027344 C 630.535156 299.785156 635.792969 301.289062 642.335938 301.289062 C 654.648438 301.289062 661.316406 294.523438 667.34375 276.632812 L 696.199219 189.4375 C 696.328125 188.984375 696.328125 188.535156 696.070312 188.082031 C 695.816406 187.632812 695.429688 187.480469 695.046875 187.480469 L 677.730469 187.480469 C 677.21875 187.480469 676.707031 187.933594 676.578125 188.382812 L 658.878906 247.617188 L 639.511719 188.234375 C 639.386719 187.632812 638.871094 187.332031 638.359375 187.332031 L 610.402344 187.332031 Z M 573.464844 187.480469 L 556.921875 187.480469 C 556.277344 187.480469 555.765625 188.082031 555.765625 188.835938 L 555.765625 273.777344 C 555.765625 274.527344 556.277344 275.128906 556.921875 275.128906 L 573.464844 275.128906 C 574.105469 275.128906 574.617188 274.527344 574.617188 273.777344 L 574.617188 188.984375 C 574.746094 188.082031 574.105469 187.480469 573.464844 187.480469 Z M 573.464844 187.480469 "/>
<path style=" stroke:none;fill-rule:nonzero;fill:rgb(11.764706%,84.313725%,37.647059%);fill-opacity:1;" d="M 577.183594 162.828125 C 577.183594 170.546875 571.84375 176.808594 565.257812 176.808594 C 558.667969 176.808594 553.328125 170.546875 553.328125 162.828125 C 553.328125 155.105469 558.667969 148.84375 565.257812 148.84375 C 571.84375 148.84375 577.183594 155.105469 577.183594 162.828125 Z M 577.183594 162.828125 "/>
</g>
</svg>
