<svg width="54" height="54" viewBox="0 0 54 54" fill="none" xmlns="http://www.w3.org/2000/svg">
<circle cx="27" cy="27" r="27" fill="#EF534F"/>
<path d="M41 19.3757C40.0071 19.7663 38.9266 20.0473 37.8136 20.1568C38.9623 19.5325 39.8351 18.5473 40.2472 17.3757C39.1862 17.9527 37.9856 18.3757 36.7363 18.5947C35.7239 17.6095 34.2865 17 32.6933 17C29.627 17 27.1609 19.2663 27.1609 22.0473C27.1609 22.4379 27.2128 22.8284 27.2972 23.2041C22.7058 22.9852 18.6109 20.9852 15.8885 17.9231C15.4082 18.6746 15.1357 19.5325 15.1357 20.4704C15.1357 22.2219 16.1124 23.7663 17.6017 24.6746C16.6932 24.642 15.8366 24.4083 15.1 24.0325V24.0947C15.1 26.5473 17.0014 28.5799 19.5356 29.0473C19.0716 29.1568 18.5752 29.2189 18.0787 29.2189C17.7185 29.2189 17.3778 29.1864 17.0339 29.142C17.7348 31.142 19.7757 32.5947 22.2061 32.642C20.3047 34 17.923 34.7988 15.3369 34.7988C14.8729 34.7988 14.4445 34.784 14 34.7367C16.4531 36.1716 19.3637 37 22.4981 37C32.6738 37 38.2419 29.3136 38.2419 22.642C38.2419 22.4231 38.2419 22.2041 38.2257 21.9852C39.303 21.2663 40.2472 20.3757 41 19.3757Z" fill="white"/>
</svg>
