<svg xmlns="http://www.w3.org/2000/svg" width="54" height="54" viewBox="0 0 54 54" fill="none">
<path d="M0 27C0 12.0883 12.0883 0 27 0C41.9117 0 54 12.0883 54 27C54 41.9117 41.9117 54 27 54C12.0883 54 0 41.9117 0 27Z" fill="#006cff"/>
<path d="M39.4567 20.1231C39.1577 18.8937 38.2766 17.9256 37.1579 17.5971C35.1305 17 27 17 27 17C27 17 18.8695 17 16.842 17.5971C15.7232 17.9256 14.8422 18.8937 14.5432 20.1231C14 22.3511 14 27 14 27C14 27 14 31.6487 14.5432 33.8769C14.8422 35.1063 15.7232 36.0744 16.842 36.4031C18.8695 37 27 37 27 37C27 37 35.1305 37 37.1579 36.4031C38.2766 36.0744 39.1577 35.1063 39.4567 33.8769C40 31.6487 40 27 40 27C40 27 40 22.3511 39.4567 20.1231Z" fill="white"/>
<path d="M25 31V23L31 27.0002L25 31Z" fill="#006cff"/>
</svg>