<svg width="54" height="54" viewBox="0 0 54 54" fill="none" xmlns="http://www.w3.org/2000/svg">
<rect width="54" height="54" rx="27" fill="#EF534F"/>
<path d="M15.3625 26.3031C17.8177 24.9423 20.5585 23.8065 23.1193 22.665C27.5249 20.7952 31.948 18.9578 36.4157 17.2472C37.285 16.9558 38.8469 16.6707 39 17.9669C38.9162 19.8017 38.5712 21.6257 38.3345 23.4496C37.7339 27.4608 37.0398 31.4582 36.3629 35.4561C36.1297 36.7877 34.4717 37.4771 33.4109 36.6249C30.8614 34.8922 28.2924 33.1763 25.7755 31.4034C24.951 30.5604 25.7156 29.3499 26.4519 28.748C28.5517 26.6658 30.7786 24.8968 32.7686 22.707C33.3054 21.4026 31.7193 22.5019 31.1962 22.8387C28.3215 24.8319 25.5173 26.9469 22.4865 28.6987C20.9384 29.5561 19.134 28.8233 17.5866 28.3448C16.1992 27.7669 14.166 27.1845 15.3623 26.3032L15.3625 26.3031Z" fill="white"/>
</svg>
