<svg xmlns="http://www.w3.org/2000/svg" width="54" height="54" viewBox="0 0 54 54" fill="none">
<rect width="54" height="54" rx="27" fill="#006cff"/>
<path fill-rule="evenodd" clip-rule="evenodd" d="M22.4088 33.1064C22.857 33.3363 23.3562 33.4563 23.8629 33.4561C25.5508 33.4561 26.9287 32.1511 26.9909 30.5246L26.9971 16H30.7254C30.7257 16.3085 30.7553 16.6163 30.8135 16.9196H28.0837V16.9201H31.8124C31.8119 18.1357 32.2652 19.3102 33.0882 20.2255L33.0893 20.2266C33.9288 20.7597 34.9101 21.0431 35.9129 21.0422V21.8493C36.2639 21.9224 36.6268 21.9613 37 21.9613V25.5861C35.1386 25.5882 33.3237 25.021 31.8125 23.9647V31.3298C31.8125 35.0075 28.7338 38 24.9495 38C24.0071 38.0002 23.0749 37.8113 22.2111 37.4449C21.3479 37.0789 20.5719 36.5436 19.9313 35.8726L19.9299 35.8716C18.1602 34.6639 17 32.6665 17 30.4102C17 26.7319 20.0787 23.739 23.8629 23.739C24.1724 23.7404 24.4814 23.7623 24.7878 23.8045V24.6625C24.8093 24.6621 24.8307 24.6614 24.8522 24.6607C24.8845 24.6596 24.9168 24.6585 24.9495 24.6585C25.2589 24.6599 25.5679 24.6818 25.8743 24.724V28.424C25.5819 28.3348 25.2725 28.2828 24.9495 28.2828C24.1185 28.2838 23.3218 28.6051 22.7342 29.1764C22.1466 29.7476 21.8161 30.522 21.8153 31.3297C21.8154 31.9677 22.0228 32.5894 22.408 33.106L22.4088 33.1064ZM18.5392 33.7099C18.8578 34.5165 19.3331 35.2482 19.9284 35.8701C19.321 35.2382 18.8519 34.5034 18.5392 33.7099Z" fill="white"/>
</svg>